<!--?xml version="1.0" standalone="no"?-->
              <svg id="sw-js-blob-svg" viewBox="0 0 100 100" xmlns="http://www.w3.org/2000/svg" version="1.1">
                    <defs> 
                        <linearGradient id="sw-gradient" x1="0" x2="1" y1="1" y2="0">
                            <stop id="stop1" stop-color="rgba(69, 223, 205, 1)" offset="0%"></stop>
                            <stop id="stop2" stop-color="rgba(72, 91, 255, 1)" offset="100%"></stop>
                        </linearGradient>
                    </defs>
                <path fill="url(#sw-gradient)" d="M21.3,-29.5C26.4,-25.5,28.7,-17.8,30.1,-10.5C31.4,-3.2,31.9,3.7,30.6,10.7C29.4,17.8,26.5,25.1,21.1,31.5C15.7,38,7.8,43.6,-0.7,44.6C-9.2,45.6,-18.5,41.9,-25.2,35.8C-31.9,29.8,-36.1,21.4,-38.8,12.7C-41.4,4,-42.6,-5.1,-39.3,-12C-36,-18.9,-28.2,-23.5,-20.9,-26.9C-13.7,-30.2,-6.8,-32.2,0.6,-33C8.1,-33.9,16.1,-33.6,21.3,-29.5Z" width="100%" height="100%" transform="translate(50 50)" stroke-width="0" style="transition: all 0.3s ease 0s;" stroke="url(#sw-gradient)"></path>
              </svg>