<!--?xml version="1.0" standalone="no"?-->
              <svg id="sw-js-blob-svg" viewBox="0 0 100 100" xmlns="http://www.w3.org/2000/svg" version="1.1">
                    <defs> 
                        <linearGradient id="sw-gradient" x1="0" x2="1" y1="1" y2="0">
                            <stop id="stop1" stop-color="rgba(254, 109, 205, 1)" offset="0%"></stop>
                            <stop id="stop2" stop-color="rgba(203, 188, 255, 1)" offset="100%"></stop>
                        </linearGradient>
                    </defs>
                <path fill="url(#sw-gradient)" d="M13.5,-21.5C16.8,-18.8,18.3,-13.9,22.6,-9C26.9,-4.1,34,0.9,32.9,4.4C31.9,7.9,22.8,9.9,18.3,16.9C13.8,23.8,13.9,35.8,9.7,40.3C5.5,44.7,-2.9,41.8,-10.7,38.6C-18.6,35.4,-25.8,32,-30.2,26.4C-34.6,20.9,-36.3,13.2,-33.8,7.1C-31.3,1,-24.5,-3.6,-22.2,-10.8C-20,-18.1,-22.3,-28.2,-19.3,-31C-16.4,-33.9,-8.2,-29.6,-1.6,-27.2C5.1,-24.8,10.1,-24.2,13.5,-21.5Z" width="100%" height="100%" transform="translate(50 50)" stroke-width="0" style="transition: all 0.3s ease 0s;" stroke="url(#sw-gradient)"></path>
              </svg>